<?xml version="1.0" standalone="no"?>
<!DOCTYPE svg PUBLIC "-//W3C//DTD SVG 20010904//EN"
 "http://www.w3.org/TR/2001/REC-SVG-20010904/DTD/svg10.dtd">
<svg version="1.0" xmlns="http://www.w3.org/2000/svg"
 width="512.000000pt" height="512.000000pt" viewBox="0 0 512.000000 512.000000"
 preserveAspectRatio="xMidYMid meet">

<g transform="translate(0.000000,512.000000) scale(0.100000,-0.100000)"
fill="#000000" stroke="none">
<path d="M2765 4254 c-236 -36 -413 -108 -587 -239 -242 -182 -407 -457 -459
-764 -17 -98 -14 -302 5 -403 42 -221 135 -411 287 -587 l61 -71 -52 -59 -52
-60 -45 35 c-54 41 -83 43 -122 7 -15 -16 -161 -185 -323 -378 -161 -192 -322
-384 -357 -425 -84 -100 -104 -145 -99 -225 13 -201 247 -297 394 -161 24 23
206 234 404 470 406 484 391 459 316 531 l-43 42 44 54 c25 30 48 58 52 62 5
4 32 -8 62 -28 173 -116 378 -181 599 -192 571 -28 1071 345 1217 906 31 119
42 327 24 450 -41 282 -150 495 -355 696 -168 165 -323 252 -554 311 -76 20
-128 26 -242 29 -80 2 -158 1 -175 -1z m292 -165 c356 -48 677 -303 814 -644
87 -219 93 -494 14 -724 -91 -269 -305 -500 -569 -614 -404 -174 -873 -76
-1172 245 -475 509 -321 1336 306 1644 181 89 395 122 607 93z m-1130 -2195
c30 -26 53 -50 51 -55 -2 -5 -115 -143 -253 -307 l-250 -299 -35 28 c-19 15
-47 38 -63 51 l-27 23 252 302 c139 166 257 302 262 302 5 1 33 -20 63 -45z
m-610 -742 l53 -44 -28 -33 c-50 -60 -98 -70 -137 -30 -34 33 -32 72 6 123 34
47 32 47 106 -16z"/>
<path d="M3505 3635 c-38 -37 -32 -72 21 -141 96 -124 138 -240 138 -384 -1
-158 -58 -315 -167 -460 -58 -76 -68 -110 -47 -150 15 -28 67 -43 99 -27 68
32 211 277 252 432 28 106 31 291 6 385 -34 126 -151 330 -207 360 -32 17 -70
11 -95 -15z"/>
</g>
</svg>
